<svg width="120" height="120" viewBox="0 0 120 120" fill="none" xmlns="http://www.w3.org/2000/svg">
<circle cx="60" cy="60" r="60" fill="#DEF6F4"/>
<g filter="url(#filter0_d)">
<path d="M80.9845 74.6432C66.9476 80.8284 53.6792 80.2747 39.4075 74.5601C38.0381 74.0113 37.1703 72.6033 37.2425 71.0839L37.7569 64.0128C37.7569 64.0111 37.7569 64.0111 37.7569 64.0094L39.18 44.4847H80.8202L82.0534 59.0654L83.0758 71.1528C83.1631 72.6564 82.3234 74.0529 80.9845 74.6432Z" fill="#18C4AA"/>
<path d="M92.0003 48.0704V53.3616L60.0011 63.2298H59.9994V57.9354L60.1605 57.5742C60.1605 57.5742 60.0579 52.9307 59.9746 48.0704H92.0003Z" fill="white"/>
<path d="M60.1603 57.5742L59.9992 57.9354V63.2298L28 53.3616V48.0704H59.9744C60.0577 52.9307 60.1603 57.5742 60.1603 57.5742Z" fill="#7FF1DF"/>
<path d="M91.9992 48.068L59.9992 57.9346L28 48.068L59.9992 35L91.9992 48.068Z" fill="#18C4AA"/>
</g>
<defs>
<filter id="filter0_d" x="13" y="24" width="94" height="81" filterUnits="userSpaceOnUse" color-interpolation-filters="sRGB">
<feFlood flood-opacity="0" result="BackgroundImageFix"/>
<feColorMatrix in="SourceAlpha" type="matrix" values="0 0 0 0 0 0 0 0 0 0 0 0 0 0 0 0 0 0 127 0"/>
<feOffset dy="4"/>
<feGaussianBlur stdDeviation="7.5"/>
<feColorMatrix type="matrix" values="0 0 0 0 0.0941176 0 0 0 0 0.772549 0 0 0 0 0.666667 0 0 0 0.35 0"/>
<feBlend mode="normal" in2="BackgroundImageFix" result="effect1_dropShadow"/>
<feBlend mode="normal" in="SourceGraphic" in2="effect1_dropShadow" result="shape"/>
</filter>
</defs>
</svg>
