<svg width="120" height="120" viewBox="0 0 120 120" fill="none" xmlns="http://www.w3.org/2000/svg">
<circle cx="60" cy="60" r="60" fill="#FFF5D9"/>
<g filter="url(#filter0_d)">
<g clip-path="url(#clip0)">
<path d="M39.5204 50.3729C39.5033 57.7428 43.1398 64.2389 48.6658 68.0358C50.8822 69.5593 52.2223 72.1171 52.2223 74.8664L54.2223 79.9643H65.6359L67.6359 74.9637C67.6359 72.2099 68.9717 69.633 71.2038 68.1257C76.7898 64.3494 80.4805 57.8312 80.4805 50.423C80.4805 38.7465 71.3108 29.28 60.0005 29.28C48.6958 29.28 39.5476 38.7008 39.5204 50.3729Z" fill="#F5C038"/>
<path d="M60 91.0489C56.6863 91.0489 54 88.3626 54 85.0489C54 81.7352 56.6863 79.0489 60 79.0489C63.3137 79.0489 66 81.7352 66 85.0489C66 88.3626 63.3137 91.0489 60 91.0489Z" fill="white"/>
<ellipse cx="49.3949" cy="42.3705" rx="4.22885" ry="7" transform="rotate(29.6838 49.3949 42.3705)" fill="#FFDC7C"/>
<rect x="51" y="75" width="18" height="10" rx="2" fill="white"/>
</g>
</g>
<defs>
<filter id="filter0_d" x="19.5195" y="13.28" width="80.96" height="101.44" filterUnits="userSpaceOnUse" color-interpolation-filters="sRGB">
<feFlood flood-opacity="0" result="BackgroundImageFix"/>
<feColorMatrix in="SourceAlpha" type="matrix" values="0 0 0 0 0 0 0 0 0 0 0 0 0 0 0 0 0 0 127 0"/>
<feOffset dy="4"/>
<feGaussianBlur stdDeviation="10"/>
<feColorMatrix type="matrix" values="0 0 0 0 0.941176 0 0 0 0 0.819608 0 0 0 0 0.470588 0 0 0 1 0"/>
<feBlend mode="normal" in2="BackgroundImageFix" result="effect1_dropShadow"/>
<feBlend mode="normal" in="SourceGraphic" in2="effect1_dropShadow" result="shape"/>
</filter>
<clipPath id="clip0">
<rect width="40.96" height="61.44" fill="white" transform="matrix(-1 0 0 1 80.4805 29.28)"/>
</clipPath>
</defs>
</svg>
